<svg xmlns="http://www.w3.org/2000/svg" width="50.89" height="47.64" viewBox="0 0 50.89 47.64"><defs><style>.a{fill:#087a41;}.b{fill:#bdac89;}.c{fill:#b9a681;}.d{fill:#b8a680;}.e{fill:#b7a57f;}.f{fill:#b6a37c;}</style></defs><path class="a" d="M36.2,3.45C19.56,4.13,11,10.89,10.65,23.21s7.54,19.17,24.4,21.09c-5.9,5.47-19.37,4-27.14-2.9A23.56,23.56,0,0,1,5,9.31C12.31-.18,26-2.92,36.2,3.45Z"/><path class="b" d="M33.58,21.37a59,59,0,0,1,.1-7.41c.14-1.08,1.34-2,2-3a15.82,15.82,0,0,1,.83,3.23,15.07,15.07,0,0,1-.35,4.55,12.84,12.84,0,0,1-1.83,3.07Z"/><path class="c" d="M43.72,28.51c-2.15,2.87-3.89,5.32-5.8,7.63a2.3,2.3,0,0,1-2.12.49,2.55,2.55,0,0,1-.63-2C38,32.91,39,28.77,43.72,28.51Z"/><path class="d" d="M46,22.24c1.59,2.16,3.31,4.24,4.7,6.52.45.75,0,2,0,3-.9-.64-2.13-1.08-2.63-1.95-1.31-2.24-2.29-4.66-3.41-7Z"/><path class="e" d="M39.54,17.63c3.35-1.06,6-2,8.76-2.7.68-.17,1.58.49,2.37.77-.24.6-.5,1.73-.73,1.72C46.7,17.33,43.6,20.4,39.54,17.63Z"/><path class="f" d="M35.24,28.42C32.7,27.64,30.11,27,27.66,26c-.67-.27-.92-1.54-1.36-2.36.91-.1,2-.54,2.69-.22,2.39,1.08,4.65,2.44,7,3.69Z"/></svg>