<svg xmlns="http://www.w3.org/2000/svg" width="610.4608" height="968.5299" viewBox="0 0 610.4608 968.5299"><defs><style>.cls-1,.cls-3{fill:#3beaa2;}.cls-1{stroke:#414042;stroke-miterlimit:10;stroke-width:0.5px;}.cls-2{fill:#fff;isolation:isolate;opacity:0.8;}.cls-4{fill:#a89880;}</style></defs><g id="Layer_2" data-name="Layer 2"><path class="cls-1" d="M568.0585,110.1417c-168.436,0-304.98,132.694-304.98,296.38a288.2533,288.2533,0,0,0,23.4085,114.0362h0l.001.002a291.82,291.82,0,0,0,16.3533,32.3674l265.2178,524.94L833.2749,552.93a288.6013,288.6013,0,0,0,39.764-146.4085C873.0389,242.8357,736.4945,110.1417,568.0585,110.1417ZM431.8649,678.2033s123.5028,85.3214,275.3541,0C707.219,678.2033,570.3867,783.7325,431.8649,678.2033Zm136.193-16.8407c-141.85,0-257.254-113.3133-257.254-252.5966s115.4044-252.5966,257.254-252.5966c141.8512,0,257.2556,113.3133,257.2556,252.5966S709.9091,661.3626,568.0579,661.3626Z" transform="translate(-262.8281 -109.8917)"/><ellipse class="cls-2" cx="305.2304" cy="298.8743" rx="247.7216" ry="239.736"/><path class="cls-3" d="M568.8314,211.501c33.8437,0,72.572,10.4674,107.4624,31.4021.6978.3377,1.7445,1.013,2.4423,1.3506,1.0467.6753,1.7445,1.3506,1.3956,2.7013-.6978,1.6882-2.0935.6753-3.14.3376-9.7694-2.3635-19.5387-4.3895-29.3079-5.74-77.8056-10.4674-158.0534,31.0644-189.4548,97.5827-31.75,67.8689-16.05,142.4909,41.8685,193.1394,39.775,34.4409,87.5748,48.96,142.0038,44.233a214.77,214.77,0,0,0,32.7969-5.74c1.7445-.3377,3.838-2.0259,4.8846-.3377,1.3956,2.3636-1.7445,3.0389-3.14,4.0519a213.1623,213.1623,0,0,1-83.7369,29.3761C490.6769,617.7016,395.0773,564.3519,360.187,473.86c-38.3794-98.9333,17.0962-211.0352,122.4652-248.8527,25.47-8.7791,51.2888-13.5063,86.1792-13.5063" transform="translate(-262.8281 -109.8917)"/><path class="cls-4" d="M641.4034,512.6905c1.3956-8.1037,3.14-16.2075,4.5358-24.3113a1.8536,1.8536,0,0,1,1.3955-2.0259c1.0468,0,1.3956,1.013,1.7446,1.6883,1.3956,2.3636.6978,6.4154,4.1868,6.4154,2.7912,0,3.838-3.7142,5.5825-6.0778,6.9781-8.4414,13.2583-16.8828,20.2364-25.3242,9.0715-10.805,21.632-14.1816,35.9371-13.844,1.0467,0,2.7912-.3376,3.489,1.3506.349,1.013-.3489,2.026-1.3956,2.7013-11.8627,6.0778-17.0962,17.2205-24.7721,26.6748-9.7694,11.48-18.8408,23.636-27.9123,35.454-1.7446,2.3635-3.4891,3.0388-6.6292,2.3635-4.1868-.6753-8.3737-1.0129-12.5605-1.6882-2.0935-.3376-4.1869-.6752-3.838-3.3765" transform="translate(-262.8281 -109.8917)"/><path class="cls-4" d="M680.4806,356.3556c1.3956-.6753,2.0934-1.3506,2.4423-1.013,18.4919.6753,34.1926-7.7661,51.2889-12.1556,10.816-2.7013,21.2831-6.0779,31.75-9.4544,2.7913-1.013,4.8846-.6753,6.9781,1.3506a105.6456,105.6456,0,0,0,9.0715,8.4414c2.0934,2.026,2.7912,3.3766.3489,5.4025l-17.7941,16.2075c-.6978.6753-1.3956,2.026-2.7912,1.3506-1.7445-.6753-.6978-2.0259-.3489-3.0388.3489-2.3636,2.7912-5.0649,1.0467-6.7532-2.4423-2.0259-5.5825.6753-8.0248,1.3506-13.2584,3.3766-26.1678,9.4544-40.124,10.805-13.2582,1.0131-24.0743-4.0518-33.8436-12.4932" transform="translate(-262.8281 -109.8917)"/><path class="cls-4" d="M589.4168,400.5886c1.0467,0,2.7912-.6753,3.489.6753,1.0467,1.6883-1.3956,2.026-2.0935,3.0389-1.7445,1.6883-5.2335,2.3636-4.5357,4.3895s4.1868,2.026,6.6291,3.0389c11.5139,3.7143,23.3766,6.7531,34.89,10.805,13.6072,4.7272,20.5853,15.1945,24.4233,27.6878.3489,1.013,1.0467,2.026-.349,2.7013-.6977.3377-2.0934.3377-2.4423-.3377-19.5386-13.1686-43.9619-14.8569-65.5939-23.2983-4.8846-1.6882-9.7693-3.0388-14.6539-4.3895a5.4531,5.4531,0,0,1-4.5358-5.0649l-2.0934-12.1556c-.349-2.3636,0-3.7142,2.7912-4.0519,7.3271-.6752,15.7007-2.0259,24.0745-3.0388" transform="translate(-262.8281 -109.8917)"/><path class="cls-4" d="M749.9125,465.0809c3.489-2.0259,5.9313-1.013,8.3736-1.6883,1.3956-.3376,3.14.6753,3.838-1.0129.6978-1.3506-1.0467-2.3636-1.7445-3.3766-7.327-9.4544-15.0029-18.9088-21.981-28.3631-8.7226-11.818-8.7226-24.3113-3.489-37.48.3489-1.013.6978-2.7012,2.0934-2.3636.6978,0,1.7446,1.3506,2.0935,2.3636,2.4423,12.4933,12.5605,20.2594,19.8875,30.0514,8.7226,12.1557,18.4919,23.636,27.5634,35.4539,1.7445,2.026,2.0934,3.7143.6978,6.0779a106.1428,106.1428,0,0,0-5.5825,10.8049c-1.3956,3.0389-2.7912,4.0519-6.28,2.026-8.0248-4.3895-16.3986-8.1037-25.47-12.4933" transform="translate(-262.8281 -109.8917)"/><path class="cls-4" d="M652.5683,321.2394v38.83c0,16.2076-9.0715,27.0125-23.3765,35.1163-1.3956-1.6883-1.3956-3.3766-.6978-4.39,3.14-5.4025,2.7912-10.805,2.7912-16.5451v-60.44c0-3.3765,1.0467-5.4025,4.5358-6.7531,2.7912-1.013,5.2335-2.7013,8.0248-3.7142,6.6291-3.0389,6.6291-3.0389,10.1181,3.3765,3.14,5.74,5.9314,11.48,9.0716,17.2205.3489,1.013,1.7445,2.3636.3489,3.3766s-2.4423-.3377-3.489-1.013a82.7109,82.7109,0,0,0-7.3271-5.0648" transform="translate(-262.8281 -109.8917)"/></g></svg>