<?xml version="1.0" encoding="utf-8"?>
<!-- Generator: Adobe Illustrator 25.0.0, SVG Export Plug-In . SVG Version: 6.00 Build 0)  -->
<svg version="1.1" id="Layer_1" xmlns="http://www.w3.org/2000/svg" xmlns:xlink="http://www.w3.org/1999/xlink" x="0px" y="0px"
	 viewBox="0 0 388 516" style="enable-background:new 0 0 388 516;" xml:space="preserve">
<style type="text/css">
	.st0{fill:#0D7070;}
	.st1{opacity:0.8;fill:#FFFFFF;enable-background:new    ;}
	.st2{fill:#A69779;}
</style>
<path class="st0" d="M174.3,503.7C29,293,2,271.4,2,194C2,88,88,2,194,2s192,86,192,192c0,77.4-27,99-172.3,309.7
	c-7.6,10.9-22.5,13.6-33.4,6.1C178,508.1,175.9,506,174.3,503.7L174.3,503.7z M194,274c44.2,0,80-35.8,80-80s-35.8-80-80-80
	s-80,35.8-80,80S149.8,274,194,274z"/>
<circle class="st1" cx="194" cy="194" r="71"/>
<g>
	<path class="st0" d="M194.2,135.6c9.7,0,20.8,3.1,30.8,9.3c0.2,0.1,0.5,0.3,0.7,0.4c0.3,0.2,0.5,0.4,0.4,0.8
		c-0.2,0.5-0.6,0.2-0.9,0.1c-2.8-0.7-5.6-1.3-8.4-1.7c-22.3-3.1-45.3,9.2-54.3,28.9c-9.1,20.1-4.6,42.2,12,57.2
		c11.4,10.2,25.1,14.5,40.7,13.1c3.2-0.3,6.3-0.9,9.4-1.7c0.5-0.1,1.1-0.6,1.4-0.1c0.4,0.7-0.5,0.9-0.9,1.2
		c-7.3,4.6-15.3,7.5-24,8.7c-29.3,4.1-56.7-11.7-66.7-38.5c-11-29.3,4.9-62.5,35.1-73.7C176.8,137,184.2,135.6,194.2,135.6"/>
	<path class="st2" d="M215,224.8c0.4-2.4,0.9-4.8,1.3-7.2c0-0.3,0.1-0.5,0.4-0.6c0.3,0,0.4,0.3,0.5,0.5c0.4,0.7,0.2,1.9,1.2,1.9
		c0.8,0,1.1-1.1,1.6-1.8c2-2.5,3.8-5,5.8-7.5c2.6-3.2,6.2-4.2,10.3-4.1c0.3,0,0.8-0.1,1,0.4c0.1,0.3-0.1,0.6-0.4,0.8
		c-3.4,1.8-4.9,5.1-7.1,7.9c-2.8,3.4-5.4,7-8,10.5c-0.5,0.7-1,0.9-1.9,0.7c-1.2-0.2-2.4-0.3-3.6-0.5
		C215.5,225.7,214.9,225.6,215,224.8"/>
	<path class="st2" d="M226.2,178.5c0.4-0.2,0.6-0.4,0.7-0.3c5.3,0.2,9.8-2.3,14.7-3.6c3.1-0.8,6.1-1.8,9.1-2.8
		c0.8-0.3,1.4-0.2,2,0.4c0.8,0.9,1.7,1.7,2.6,2.5c0.6,0.6,0.8,1,0.1,1.6c-1.7,1.6-3.4,3.2-5.1,4.8c-0.2,0.2-0.4,0.6-0.8,0.4
		c-0.5-0.2-0.2-0.6-0.1-0.9c0.1-0.7,0.8-1.5,0.3-2c-0.7-0.6-1.6,0.2-2.3,0.4c-3.8,1-7.5,2.8-11.5,3.2
		C232.1,182.5,229,181,226.2,178.5"/>
	<path class="st2" d="M200.1,191.6c0.3,0,0.8-0.2,1,0.2c0.3,0.5-0.4,0.6-0.6,0.9c-0.5,0.5-1.5,0.7-1.3,1.3s1.2,0.6,1.9,0.9
		c3.3,1.1,6.7,2,10,3.2c3.9,1.4,5.9,4.5,7,8.2c0.1,0.3,0.3,0.6-0.1,0.8c-0.2,0.1-0.6,0.1-0.7-0.1c-5.6-3.9-12.6-4.4-18.8-6.9
		c-1.4-0.5-2.8-0.9-4.2-1.3c-0.8-0.2-1.2-0.7-1.3-1.5c-0.2-1.2-0.4-2.4-0.6-3.6c-0.1-0.7,0-1.1,0.8-1.2
		C195.3,192.3,197.7,191.9,200.1,191.6"/>
	<path class="st2" d="M246.1,210.7c1-0.6,1.7-0.3,2.4-0.5c0.4-0.1,0.9,0.2,1.1-0.3c0.2-0.4-0.3-0.7-0.5-1c-2.1-2.8-4.3-5.6-6.3-8.4
		c-2.5-3.5-2.5-7.2-1-11.1c0.1-0.3,0.2-0.8,0.6-0.7c0.2,0,0.5,0.4,0.6,0.7c0.7,3.7,3.6,6,5.7,8.9c2.5,3.6,5.3,7,7.9,10.5
		c0.5,0.6,0.6,1.1,0.2,1.8c-0.6,1-1.1,2.1-1.6,3.2c-0.4,0.9-0.8,1.2-1.8,0.6C251.1,213.1,248.7,212,246.1,210.7"/>
	<path class="st2" d="M218.2,168.1c0,4.1,0,7.8,0,11.5c0,4.8-2.6,8-6.7,10.4c-0.4-0.5-0.4-1-0.2-1.3c0.9-1.6,0.8-3.2,0.8-4.9
		c0-6,0-12,0-17.9c0-1,0.3-1.6,1.3-2c0.8-0.3,1.5-0.8,2.3-1.1c1.9-0.9,1.9-0.9,2.9,1c0.9,1.7,1.7,3.4,2.6,5.1c0.1,0.3,0.5,0.7,0.1,1
		s-0.7-0.1-1-0.3C219.7,169.1,219.1,168.7,218.2,168.1"/>
</g>
</svg>
